# xmcd
#
# Track frame offsets: 
#        150
#        16266
#        33924
#        41626
#        56739
#        70268
#        85822
#        91522
#
# Disc length: 1514 seconds
#
# Revision: 0
# Processed by: cddbd v1.5.2PL0 Copyright (c) Steve Scherf et al.
# Submitted via: ExactAudioCopyFreeDBPlugin 1.0
#
DISCID=5805e808
DTITLE=Blues-O-Matic - Experience
DYEAR=2018
DGENRE=Bluesrock
TTITLE0=Hey Yeah
TTITLE1=Carbo Blues
TTITLE2=Dans La Brume
TTITLE3=Gigue N' Roll
TTITLE4=The Ride
TTITLE5=Psyché Storm
TTITLE6=Calme Après La Tempète
TTITLE7=Levee's Breakdown
EXTD=
EXTT0=
EXTT1=
EXTT2=
EXTT3=
EXTT4=
EXTT5=
EXTT6=
EXTT7=
PLAYORDER=
